<?xml version="1.0" encoding="utf-8"?>
<!-- Generator: Adobe Illustrator 16.0.3, SVG Export Plug-In . SVG Version: 6.00 Build 0)  -->
<!DOCTYPE svg PUBLIC "-//W3C//DTD SVG 1.1//EN" "http://www.w3.org/Graphics/SVG/1.1/DTD/svg11.dtd">
<svg version="1.1" id="レイヤー_1" xmlns="http://www.w3.org/2000/svg" xmlns:xlink="http://www.w3.org/1999/xlink" x="0px"
	 y="0px" width="460.203px" height="141.939px" viewBox="0 0 460.203 141.939" enable-background="new 0 0 460.203 141.939"
	 xml:space="preserve">
<g>
	<polygon fill="#C7C7C7" points="328.715,14.895 349.665,35.896 328.715,58.128 328.715,42.442 284.578,43.519 259.666,71.291 
		284.578,99.063 328.715,100.139 328.715,84.453 349.665,106.686 328.715,127.696 328.715,112.01 280.251,110.343 252.628,79.138 
		226.318,108.487 152.935,105.963 152.935,95.854 222.43,97.549 245.681,71.291 222.43,45.034 152.935,46.728 152.935,36.628 
		226.318,34.104 252.628,63.443 280.251,32.248 328.715,30.581 	"/>
</g>
<g>
	<g enable-background="new    ">
		<g>
			<path d="M0,42.246c0-4.331,0.46-8.243,1.354-11.688c0.896-3.453,2.229-6.444,3.975-8.923c1.752-2.488,3.924-4.464,6.493-5.874
				c2.583-1.417,5.572-2.263,8.946-2.48c-3.374,0.217-6.363,1.063-8.946,2.48c-2.569,1.409-4.741,3.386-6.493,5.874
				c-1.746,2.479-3.079,5.47-3.975,8.923C0.46,34.003,0,37.915,0,42.246z"/>
		</g>
		<g>
			<path d="M20.976,22.243c-1.373,0.076-2.638,0.233-3.795,0.475c-1.155,0.24-2.204,0.564-3.148,0.972
				c-0.943,0.407-1.782,0.898-2.52,1.475c-0.737,0.575-1.372,1.236-1.907,1.984c-0.52,0.745-0.975,1.619-1.364,2.624
				c-0.39,1.003-0.714,2.137-0.974,3.401c-0.259,1.263-0.454,2.657-0.583,4.181c-0.13,1.524-0.195,3.179-0.195,4.965
				c0-1.786,0.065-3.441,0.195-4.965c0.129-1.524,0.324-2.917,0.583-4.181c0.26-1.264,0.584-2.398,0.974-3.401
				c0.39-1.005,0.844-1.879,1.364-2.624c0.536-0.748,1.17-1.409,1.907-1.984c0.737-0.577,1.577-1.068,2.52-1.475
				c0.944-0.408,1.993-0.732,3.148-0.972C18.338,22.476,19.603,22.318,20.976,22.243z"/>
		</g>
		<g>
			<path d="M40.395,12.021v9.162l-19.402,1.059c-1.375,0.075-2.642,0.233-3.801,0.474c-1.156,0.24-2.207,0.564-3.153,0.972
				c-0.944,0.407-1.784,0.898-2.523,1.475c-0.737,0.576-1.373,1.237-1.909,1.986c-0.52,0.745-0.975,1.619-1.364,2.624
				c-0.39,1.003-0.714,2.137-0.974,3.401c-0.259,1.263-0.454,2.657-0.583,4.181c-0.13,1.524-0.195,3.179-0.195,4.965v18.993
				l12.037-0.156c1.134-0.015,2.193-0.089,3.176-0.224c0.984-0.135,1.892-0.33,2.72-0.585c0.829-0.256,1.578-0.572,2.244-0.949
				c0.667-0.377,1.251-0.815,1.75-1.313c0.543-0.536,1.044-1.195,1.503-1.976c0.459-0.781,0.875-1.685,1.249-2.708
				c0.374-1.024,0.705-2.169,0.992-3.433c0.288-1.265,0.532-2.648,0.733-4.15l-10.886,0.315v-8.978l18.561-0.715
				c-0.132,2.847-0.334,5.496-0.604,7.945c-0.271,2.448-0.611,4.697-1.02,6.747c-0.408,2.047-0.886,3.895-1.431,5.542
				c-0.545,1.646-1.159,3.091-1.84,4.336c-0.841,1.508-1.828,2.831-2.961,3.966c-1.131,1.132-2.408,2.079-3.829,2.836
				c-1.417,0.756-2.978,1.325-4.68,1.706c-1.697,0.379-3.534,0.573-5.511,0.58L0,70.163V42.246c0-4.331,0.46-8.243,1.354-11.688
				c0.896-3.453,2.229-6.444,3.975-8.923c1.752-2.488,3.924-4.464,6.493-5.874c2.583-1.417,5.572-2.263,8.946-2.48L40.395,12.021z"
				/>
		</g>
		<g>
			<path d="M40.569,36.441c-0.132,2.847-0.334,5.496-0.604,7.945c-0.271,2.448-0.611,4.697-1.02,6.747
				c-0.408,2.047-0.886,3.895-1.431,5.542c-0.545,1.646-1.159,3.091-1.84,4.336c0.681-1.245,1.294-2.691,1.84-4.336
				c0.545-1.647,1.023-3.495,1.431-5.542c0.409-2.049,0.749-4.298,1.02-6.747C40.235,41.937,40.437,39.288,40.569,36.441z"/>
		</g>
		<g>
			<path d="M43.812,42.189c0-1.561,0.083-3.042,0.251-4.442c0.168-1.401,0.42-2.722,0.757-3.962
				c0.337-1.242,0.758-2.403,1.265-3.484c0.507-1.083,1.1-2.084,1.778-3.005c-0.678,0.921-1.271,1.922-1.778,3.005
				c-0.506,1.081-0.928,2.242-1.265,3.484c-0.337,1.24-0.589,2.561-0.757,3.962C43.896,39.147,43.812,40.628,43.812,42.189z"/>
		</g>
		<g>
			<path d="M74.066,20.585v6.545l-14.436,0.674c-1.807,0.084-3.344,0.344-4.643,0.805c-1.295,0.46-2.354,1.122-3.209,2.014
				c-0.854,0.89-1.504,2.01-1.983,3.387c-0.479,1.376-0.785,3.01-0.95,4.93l25.221-0.899v6.544L48.724,45.32v10.631l25.343-0.455
				v6.544l-30.254,0.343V42.189c0-1.561,0.083-3.042,0.251-4.442c0.168-1.401,0.42-2.722,0.757-3.962
				c0.337-1.242,0.758-2.403,1.265-3.484c0.507-1.083,1.1-2.084,1.778-3.005c0.677-0.924,1.426-1.739,2.245-2.447
				c0.821-0.708,1.713-1.309,2.678-1.803c0.966-0.494,2.004-0.881,3.115-1.162c1.114-0.281,2.3-0.455,3.561-0.521L74.066,20.585z"/>
		</g>
		<g>
			<polygon points="108.525,89.933 108.525,132.835 102.985,132.512 102.985,114.546 81.414,113.669 81.414,131.254 76.163,130.947 
				76.163,89.404 81.414,89.49 81.414,107.075 102.985,107.809 102.985,89.843 			"/>
		</g>
		<g>
			<polygon points="110.003,40.151 110.003,83.115 104.351,83.062 82.807,52.315 82.807,82.854 77.542,82.802 77.542,41.2 
				82.545,41.039 104.44,72.099 104.44,40.331 			"/>
		</g>
		<g>
			<path d="M147.062,80.271v44.521l-16.825-0.818c-2.909-0.141-5.491-0.772-7.726-1.849c-2.225-1.071-4.108-2.586-5.629-4.501
				c-1.517-1.909-2.676-4.219-3.455-6.89c-0.778-2.667-1.179-5.698-1.179-9.055V80.041l5.929,0.039l-0.049,24.444
				c0.107,1.313,0.273,2.511,0.497,3.594c0.224,1.084,0.505,2.054,0.842,2.911c0.337,0.856,0.731,1.601,1.181,2.232
				c0.45,0.633,0.955,1.153,1.514,1.562c0.479,0.349,1.088,0.66,1.826,0.936c0.739,0.275,1.608,0.514,2.608,0.718
				c1.001,0.204,2.135,0.372,3.4,0.505c1.269,0.134,2.67,0.233,4.207,0.298c0.069,0.003,0.139,0.006,0.209,0.008
				c0.07,0.003,0.14,0.006,0.21,0.008c0.071,0.003,0.142,0.006,0.212,0.008c0.071,0.003,0.143,0.005,0.214,0.007l6.05,0.194V80.232
				L147.062,80.271z"/>
		</g>
		<g>
			<path d="M118.129,104.54c0.107,1.311,0.274,2.507,0.498,3.588c0.224,1.082,0.505,2.051,0.842,2.906s0.731,1.599,1.18,2.229
				c0.449,0.632,0.954,1.151,1.512,1.56c0.479,0.349,1.088,0.66,1.826,0.936c0.739,0.275,1.608,0.514,2.608,0.718
				c1.001,0.204,2.135,0.372,3.4,0.505c1.269,0.134,2.67,0.233,4.207,0.298c-1.536-0.064-2.938-0.164-4.207-0.298
				c-1.265-0.133-2.398-0.301-3.4-0.505c-1-0.204-1.869-0.442-2.608-0.718c-0.738-0.275-1.346-0.587-1.826-0.936
				c-0.559-0.408-1.063-0.928-1.512-1.56c-0.449-0.631-0.843-1.374-1.18-2.229s-0.619-1.824-0.842-2.906
				C118.403,107.047,118.236,105.851,118.129,104.54z"/>
		</g>
		<g>
			<path d="M148.645,27.568v25.813L134.3,53.649l14.3,13.043l-3.754,5.466l-19.782-18.337l-5.671,0.106v18.256l-5.658,0.006V50.512
				c0-1.672,0.097-3.259,0.29-4.76c0.193-1.501,0.484-2.917,0.871-4.246c0.388-1.33,0.872-2.573,1.455-3.729
				c0.583-1.158,1.264-2.229,2.044-3.211c0.782-0.984,1.646-1.852,2.59-2.604c0.946-0.753,1.975-1.39,3.086-1.912
				c1.114-0.522,2.311-0.93,3.591-1.222c1.284-0.293,2.653-0.47,4.107-0.533L148.645,27.568z M142.663,46.493V34.825l-6.06,0.22
				c-0.141,0.003-0.281,0.006-0.419,0.009s-0.276,0.006-0.413,0.01c-0.137,0.003-0.272,0.007-0.406,0.012s-0.267,0.009-0.399,0.014
				c-1.416,0.051-2.706,0.135-3.872,0.252c-1.164,0.116-2.206,0.265-3.127,0.447c-0.919,0.182-1.72,0.396-2.402,0.645
				c-0.682,0.248-1.246,0.529-1.694,0.845c-0.573,0.379-1.09,0.87-1.549,1.471c-0.459,0.601-0.861,1.312-1.207,2.13
				c-0.345,0.818-0.634,1.745-0.865,2.778c-0.231,1.033-0.406,2.172-0.524,3.417L142.663,46.493"/>
		</g>
		<g>
			<path d="M136.603,35.045c-0.141,0.003-0.281,0.006-0.419,0.009s-0.276,0.006-0.413,0.01c-0.137,0.003-0.272,0.007-0.406,0.012
				s-0.267,0.009-0.399,0.014c-1.416,0.051-2.706,0.135-3.872,0.252c-1.164,0.116-2.206,0.265-3.127,0.447
				c-0.919,0.182-1.72,0.396-2.402,0.645c-0.682,0.248-1.246,0.529-1.694,0.845c0.448-0.315,1.013-0.597,1.694-0.845
				c0.682-0.248,1.482-0.463,2.402-0.645c0.921-0.182,1.963-0.331,3.127-0.447c1.166-0.117,2.456-0.201,3.872-0.252
				c0.132-0.005,0.265-0.009,0.399-0.014s0.27-0.008,0.406-0.012c0.136-0.004,0.274-0.007,0.413-0.01S136.461,35.048,136.603,35.045
				z"/>
		</g>
		<g>
			<path d="M188.617,97.695v7.304l-17.956-0.518c-2.241-0.064-4.146,0.09-5.755,0.489c-1.604,0.399-2.917,1.043-3.976,1.96
				c-1.057,0.916-1.863,2.104-2.456,3.595c-0.592,1.488-0.971,3.279-1.176,5.401l31.318,1.248v7.305l-31.469-1.463v18.923
				l-6.078-0.39v-22.466c0-1.733,0.104-3.37,0.312-4.912c0.208-1.541,0.52-2.987,0.936-4.338c0.417-1.351,0.938-2.606,1.565-3.765
				c0.627-1.16,1.36-2.225,2.2-3.192c0.839-0.966,1.765-1.807,2.779-2.521c1.016-0.716,2.121-1.307,3.314-1.771
				c1.197-0.466,2.483-0.807,3.86-1.021c1.38-0.216,2.852-0.307,4.417-0.271L188.617,97.695z"/>
		</g>
		<g>
			<path d="M156.083,102.877c0.839-0.966,1.765-1.807,2.779-2.521c1.016-0.716,2.121-1.307,3.314-1.771
				c1.197-0.466,2.483-0.807,3.86-1.021c1.38-0.216,2.852-0.307,4.417-0.271c-1.502-0.034-2.918,0.048-4.251,0.246
				c-1.329,0.197-2.575,0.509-3.737,0.938c-1.16,0.427-2.237,0.97-3.233,1.628c-0.994,0.657-1.907,1.43-2.739,2.319
				c-0.035,0.037-0.069,0.074-0.104,0.111c-0.034,0.038-0.068,0.075-0.103,0.113c-0.034,0.037-0.068,0.075-0.102,0.113
				C156.149,102.8,156.116,102.839,156.083,102.877z"/>
		</g>
		<g>
			<path d="M190.327,39.646v7.315l-18.003,0.429c-2.248,0.053-4.159,0.309-5.774,0.794c-1.61,0.485-2.927,1.2-3.99,2.175
				c-1.061,0.973-1.869,2.206-2.463,3.729c-0.593,1.522-0.973,3.334-1.176,5.468l31.406-0.4v7.315l-31.565,0.193v11.847
				l31.565,0.155v7.315l-37.661-0.435V63.056c0-1.738,0.104-3.385,0.313-4.941c0.209-1.556,0.522-3.021,0.94-4.396
				c0.418-1.375,0.942-2.659,1.57-3.852c0.629-1.194,1.363-2.296,2.204-3.308c0.843-1.012,1.773-1.903,2.792-2.673
				c1.02-0.771,2.129-1.422,3.327-1.951c1.201-0.531,2.491-0.941,3.873-1.23c1.385-0.29,2.861-0.458,4.43-0.506L190.327,39.646z"/>
		</g>
		<g>
			<path d="M233.555,80.846v7.603l-19.43-0.258c-2.424-0.032-4.483,0.157-6.224,0.599c-1.735,0.439-3.153,1.129-4.299,2.1
				c-1.143,0.968-2.014,2.216-2.654,3.774c-0.64,1.557-1.05,3.425-1.271,5.634l33.877,0.823v7.602l-34.041-1.053v19.673
				l-6.566-0.319v-23.35c0-1.802,0.112-3.506,0.336-5.111c0.224-1.606,0.561-3.115,1.01-4.525c0.45-1.411,1.012-2.725,1.688-3.938
				c0.676-1.215,1.467-2.331,2.372-3.348c0.908-1.019,1.91-1.906,3.008-2.665c1.1-0.761,2.294-1.392,3.585-1.894
				c1.295-0.503,2.686-0.878,4.175-1.123c1.493-0.247,3.085-0.364,4.776-0.353L233.555,80.846z"/>
		</g>
		<g>
			<polygon points="245.371,84.423 245.371,125.389 282.32,127.052 282.32,134.976 238.245,132.7 238.245,84.354 			"/>
		</g>
		<g>
			<path d="M292.897,78.222c-2.776-0.012-5.135,0.211-7.127,0.699c-1.984,0.486-3.607,1.237-4.917,2.285
				c-1.307,1.046-2.303,2.389-3.034,4.06c-0.731,1.67-1.2,3.67-1.453,6.033c0.253-2.363,0.722-4.363,1.453-6.033
				c0.731-1.671,1.728-3.014,3.034-4.06c1.31-1.048,2.933-1.799,4.917-2.285C287.763,78.433,290.121,78.21,292.897,78.222z"/>
		</g>
		<g>
			<path d="M315.163,70.171v8.143l-22.266-0.092c-2.776-0.012-5.135,0.211-7.127,0.699c-1.984,0.486-3.607,1.237-4.917,2.285
				c-1.307,1.046-2.303,2.389-3.034,4.06c-0.731,1.67-1.2,3.67-1.453,6.033l38.797,0.589v8.143l-38.983-0.85v13.133l38.983,1.28
				v8.153l-46.483-1.835V94.963c0-1.924,0.128-3.745,0.384-5.463c0.257-1.719,0.642-3.334,1.155-4.845
				c0.514-1.512,1.157-2.92,1.931-4.224c0.773-1.305,1.679-2.506,2.714-3.601c1.036-1.097,2.181-2.056,3.434-2.877
				c1.256-0.823,2.622-1.51,4.099-2.06c1.48-0.551,3.072-0.965,4.776-1.243c1.708-0.278,3.53-0.42,5.467-0.425L315.163,70.171z"/>
		</g>
		<g>
			<path d="M354.862,41.059c-0.482,0.485-0.966,1.206-1.418,2.071c-0.451,0.864-0.873,1.871-1.233,2.93
				c-0.361,1.059-0.661,2.169-0.871,3.24c-0.211,1.071-0.331,2.104-0.331,3.005c0-0.902,0.12-1.934,0.331-3.005
				c0.21-1.071,0.51-2.182,0.871-3.24c0.36-1.06,0.782-2.066,1.233-2.93C353.896,42.265,354.38,41.544,354.862,41.059z"/>
		</g>
		<g>
			<path d="M378.669,26.598c-2.763,0.662-5.299,1.476-7.633,2.431c-2.325,0.952-4.452,2.044-6.403,3.266
				c-1.944,1.219-3.717,2.566-5.339,4.032c-1.618,1.462-3.087,3.043-4.432,4.731c1.345-1.688,2.813-3.269,4.432-4.731
				c1.622-1.466,3.395-2.813,5.339-4.032c1.951-1.222,4.078-2.314,6.403-3.266C373.37,28.074,375.906,27.26,378.669,26.598z"/>
		</g>
		<g>
			<path d="M386.161,116.939c8.022,0.27,15-0.108,20.996-1.228c6.051-1.129,11.083-3.009,15.172-5.729
				c4.115-2.737,7.264-6.317,9.534-10.825c2.277-4.522,3.666-9.967,4.26-16.414c-0.594,6.447-1.982,11.892-4.26,16.414
				c-2.271,4.508-5.419,8.088-9.534,10.825c-4.089,2.721-9.121,4.601-15.172,5.729C401.161,116.831,394.184,117.209,386.161,116.939
				z"/>
		</g>
		<g>
			<path d="M460.203,0v70.801c0,11.135-1.685,21.104-4.966,29.754c-3.267,8.607-8.101,15.868-14.396,21.649
				c-6.239,5.728-13.887,9.979-22.824,12.646c-8.82,2.633-18.862,3.714-30.002,3.159l-61.145-3.043v-20.021l59.291,1.994
				c8.022,0.27,15-0.108,20.996-1.228c6.051-1.129,11.083-3.009,15.172-5.729c4.115-2.737,7.264-6.317,9.534-10.825
				c2.277-4.522,3.666-9.967,4.26-16.414l-56.01-0.395v-20.88l56.01-0.509V23.068l-41.986,1.561
				c-5.064,0.188-9.585,0.719-13.635,1.56c-4.024,0.835-7.589,1.978-10.764,3.395c-3.16,1.41-5.937,3.094-8.396,5.02
				c-2.451,1.919-4.59,4.081-6.479,6.455c-0.482,0.485-0.966,1.206-1.418,2.071c-0.451,0.864-0.873,1.871-1.233,2.93
				c-0.361,1.059-0.661,2.169-0.871,3.24c-0.211,1.071-0.331,2.104-0.331,3.005l-20.432,0.338c0.465-2.751,1.067-5.359,1.79-7.823
				c0.723-2.466,1.566-4.788,2.512-6.962c0.947-2.177,1.997-4.208,3.131-6.087c1.137-1.883,2.357-3.615,3.646-5.192
				c2.584-3.124,5.525-6.029,8.876-8.653c3.369-2.637,7.155-4.993,11.413-7c4.287-2.021,9.058-3.693,14.372-4.948
				c5.357-1.265,11.276-2.108,17.82-2.457L460.203,0z"/>
		</g>
	</g>
	<g enable-background="new    ">
		<g>
			<path d="M72.537,69.919v7.958L55.22,77.795c-1.267-0.006-2.59,0.062-3.889,0.35c-1.295,0.287-2.567,0.794-3.733,1.668
				c-1.164,0.872-2.224,2.109-3.101,3.859c-0.875,1.746-1.569,4.005-2.002,6.923l30.197,0.549c0,6.267-0.654,11.204-1.782,15.074
				c-1.126,3.86-2.722,6.651-4.608,8.642c-1.879,1.983-4.043,3.17-6.317,3.833c-2.263,0.659-4.634,0.799-6.939,0.688l-16.841-0.804
				v-7.665l16.638,0.66c1.657,0.065,3.263-0.123,4.741-0.585c1.482-0.463,2.835-1.201,3.981-2.231
				c1.149-1.032,2.089-2.358,2.742-3.993c0.654-1.638,1.02-3.584,1.02-5.854l-29.314-0.77c0-6.098,0.625-10.894,1.7-14.661
				c1.077-3.777,2.608-6.529,4.417-8.523c1.816-2.001,3.915-3.24,6.118-3.981c2.213-0.745,4.532-0.988,6.774-0.996L72.537,69.919z"
				/>
		</g>
		<g>
			<path d="M36.013,98.14c0-6.098,0.625-10.894,1.7-14.661c1.077-3.777,2.608-6.529,4.417-8.523c1.816-2.001,3.915-3.24,6.118-3.981
				c2.213-0.745,4.532-0.988,6.774-0.996c-2.242,0.007-4.561,0.25-6.774,0.996c-2.203,0.741-4.302,1.98-6.118,3.981
				c-1.81,1.994-3.34,4.746-4.417,8.523C36.638,87.246,36.013,92.042,36.013,98.14z"/>
		</g>
		<g>
			<path d="M57.441,111.03L57.441,111.03c-0.36,0.107-0.728,0.199-1.101,0.275s-0.753,0.137-1.138,0.181
				c-0.385,0.045-0.774,0.074-1.168,0.089c-0.394,0.014-0.792,0.013-1.192-0.003c0.4,0.016,0.798,0.017,1.192,0.003
				c0.394-0.015,0.784-0.044,1.168-0.089c0.385-0.044,0.765-0.104,1.138-0.181S57.082,111.138,57.441,111.03z"/>
		</g>
	</g>
</g>
</svg>
